<svg xmlns="http://www.w3.org/2000/svg" viewBox="0 0 106.59 79.62"><defs><style>.cls-1{fill:#fff;}.cls-2{fill:gray;}</style></defs><title>bitsentiment-logo</title><g id="Layer_2" data-name="Layer 2"><g id="Layer_2-2" data-name="Layer 2"><path class="cls-1" d="M80.05,26.54A26.53,26.53,0,0,0,52.77,0C38.31.41,27,12.63,27,27.09v18.4a17.3,17.3,0,0,1-5,12.21L0,79.62H80.05a26.54,26.54,0,0,0,26.54-26.54h0A26.54,26.54,0,0,0,80.05,26.54Z"/><path class="cls-2" d="M103.82,53.06C100.59,73.32,80,76.85,80,76.85A23.79,23.79,0,0,0,103.82,53.06Z"/><path class="cls-2" d="M76.71,26C73.47,46.21,52.92,49.74,52.92,49.74A23.79,23.79,0,0,0,76.71,26Z"/></g></g></svg>